<svg width="153" height="45" viewBox="0 0 153 45" fill="none" xmlns="http://www.w3.org/2000/svg">
<path d="M152.15 39.1026C152.15 41.4581 150.202 43.3661 147.793 43.3661H5.21266C2.80467 43.3661 0.850098 41.4581 0.850098 39.1026V5.103C0.850098 2.74864 2.80467 0.833984 5.21266 0.833984H147.792C150.202 0.833984 152.149 2.74864 152.149 5.103L152.15 39.1026Z" fill="black"/>
<path d="M147.333 0.885575C149.957 0.885575 152.092 2.96712 152.092 5.52519V38.6752C152.092 41.2333 149.957 43.3148 147.333 43.3148H5.66667C3.043 43.3148 0.908083 41.2333 0.908083 38.6752V5.52519C0.908083 2.96712 3.043 0.885575 5.66667 0.885575H147.333ZM147.333 0.000195286H5.66667C2.55142 0.000195286 0 2.48783 0 5.52519V38.6752C0 41.7126 2.55142 44.2002 5.66667 44.2002H147.333C150.449 44.2002 153 41.7126 153 38.6752V5.52519C153 2.48783 150.449 0.000195286 147.333 0.000195286Z" fill="#A6A6A6"/>
<path d="M34.1451 21.8617C34.1123 18.3002 37.136 16.5676 37.2743 16.4869C35.5618 14.0526 32.9075 13.72 31.9748 13.6935C29.7455 13.4648 27.5831 14.9941 26.4475 14.9941C25.2893 14.9941 23.5405 13.7156 21.6558 13.7532C19.2305 13.7896 16.9615 15.1587 15.7171 17.2847C13.149 21.6197 15.0643 27.99 17.5248 31.4939C18.7556 33.21 20.1938 35.1261 22.0763 35.0587C23.9179 34.9846 24.6059 33.9139 26.8283 33.9139C29.0304 33.9139 29.6764 35.0587 31.5963 35.0156C33.5728 34.9846 34.8172 33.2918 36.0049 31.5602C37.4273 29.5933 37.9985 27.6563 38.0211 27.5568C37.9747 27.5414 34.1825 26.1303 34.1451 21.8617Z" fill="white"/>
<path d="M30.5185 11.3885C31.509 10.1807 32.1867 8.53756 31.9986 6.87012C30.5649 6.932 28.772 7.83699 27.7395 9.01824C26.8261 10.0591 26.0101 11.7653 26.2209 13.3697C27.8313 13.4869 29.4849 12.5774 30.5185 11.3885Z" fill="white"/>
<path d="M60.6788 34.8118H58.105L56.6951 30.4923H51.7946L50.4516 34.8118H47.9458L52.801 20.1064H55.7998L60.6788 34.8118ZM56.2701 28.6801L54.9951 24.8403C54.8603 24.448 54.6075 23.5242 54.2347 22.07H54.1893C54.0409 22.6955 53.8017 23.6192 53.4731 24.8403L52.2207 28.6801H56.2701Z" fill="white"/>
<path d="M73.1645 29.3793C73.1645 31.1827 72.6647 32.6081 71.6651 33.6546C70.7698 34.5861 69.658 35.0513 68.3309 35.0513C66.8983 35.0513 65.8693 34.5496 65.2425 33.5463H65.1972V39.1321H62.7809V27.6986C62.7809 26.5649 62.7503 25.4013 62.6914 24.2079H64.8164L64.9513 25.8886H64.9966C65.8024 24.6223 67.0253 23.9902 68.6663 23.9902C69.9493 23.9902 71.0203 24.4842 71.8771 25.4731C72.7361 26.4632 73.1645 27.7649 73.1645 29.3793ZM70.7029 29.4655C70.7029 28.4334 70.4649 27.5826 69.9867 26.913C69.4642 26.2146 68.7627 25.8654 67.8832 25.8654C67.2871 25.8654 66.7453 26.0599 66.2614 26.4433C65.7763 26.8301 65.459 27.3351 65.3105 27.9605C65.2357 28.2522 65.1983 28.4909 65.1983 28.6787V30.4468C65.1983 31.218 65.4409 31.8689 65.9259 32.4004C66.411 32.9319 67.0411 33.1971 67.8163 33.1971C68.7264 33.1971 69.4347 32.8545 69.9413 32.1717C70.4491 31.4877 70.7029 30.586 70.7029 29.4655Z" fill="white"/>
<path d="M85.6732 29.3793C85.6732 31.1827 85.1734 32.6081 84.1726 33.6546C83.2784 34.5861 82.1666 35.0513 80.8395 35.0513C79.407 35.0513 78.3779 34.5496 77.7523 33.5463H77.707V39.1321H75.2907V27.6986C75.2907 26.5649 75.2601 25.4013 75.2012 24.2079H77.3262L77.461 25.8886H77.5064C78.311 24.6223 79.5339 23.9902 81.1761 23.9902C82.4579 23.9902 83.5289 24.4842 84.388 25.4731C85.2436 26.4632 85.6732 27.7649 85.6732 29.3793ZM83.2116 29.4655C83.2116 28.4334 82.9724 27.5826 82.4942 26.913C81.9717 26.2146 81.2724 25.8654 80.3918 25.8654C79.7946 25.8654 79.254 26.0599 78.7689 26.4433C78.2838 26.8301 77.9676 27.3351 77.8192 27.9605C77.7455 28.2522 77.707 28.4909 77.707 28.6787V30.4468C77.707 31.218 77.9495 31.8689 78.4323 32.4004C78.9174 32.9308 79.5475 33.1971 80.325 33.1971C81.235 33.1971 81.9434 32.8545 82.45 32.1717C82.9577 31.4877 83.2116 30.586 83.2116 29.4655Z" fill="white"/>
<path d="M99.6586 30.6881C99.6586 31.9389 99.2132 32.9566 98.319 33.7423C97.3364 34.6009 95.9684 35.0296 94.2106 35.0296C92.5877 35.0296 91.2866 34.7246 90.3018 34.1136L90.8616 32.15C91.9224 32.7754 93.0864 33.0892 94.3546 33.0892C95.2646 33.0892 95.973 32.8881 96.4818 32.4881C96.9884 32.0881 97.2412 31.5511 97.2412 30.8814C97.2412 30.2847 97.0326 29.782 96.6144 29.3742C96.1985 28.9665 95.5038 28.5875 94.5336 28.2372C91.893 27.2769 90.5738 25.8703 90.5738 24.0205C90.5738 22.8116 91.0362 21.8204 91.9621 21.0492C92.8846 20.2768 94.1154 19.8911 95.6545 19.8911C97.027 19.8911 98.1671 20.1243 99.0772 20.5895L98.4731 22.51C97.6231 22.0591 96.662 21.8337 95.5865 21.8337C94.7365 21.8337 94.0724 22.0381 93.5964 22.4448C93.194 22.8083 92.9923 23.2514 92.9923 23.7763C92.9923 24.3575 93.2224 24.8382 93.6848 25.2161C94.0871 25.5653 94.8181 25.9432 95.8789 26.3509C97.1766 26.8603 98.1297 27.4559 98.7428 28.1388C99.3537 28.8195 99.6586 29.6715 99.6586 30.6881Z" fill="white"/>
<path d="M107.648 25.976H104.984V31.1242C104.984 32.4336 105.453 33.0878 106.394 33.0878C106.826 33.0878 107.184 33.0513 107.467 32.9784L107.534 34.7674C107.058 34.9408 106.432 35.0281 105.655 35.0281C104.701 35.0281 103.955 34.7442 103.417 34.1773C102.881 33.6093 102.611 32.6568 102.611 31.3186V25.9738H101.024V24.2058H102.611V22.2643L104.984 21.5659V24.2058H107.648V25.976Z" fill="white"/>
<path d="M119.664 29.4228C119.664 31.0527 119.186 32.3908 118.231 33.4372C117.231 34.5146 115.902 35.0516 114.247 35.0516C112.651 35.0516 111.38 34.5356 110.433 33.5035C109.485 32.4715 109.012 31.1687 109.012 29.5985C109.012 27.9553 109.499 26.6094 110.477 25.563C111.453 24.5155 112.77 23.9917 114.426 23.9917C116.021 23.9917 117.305 24.5077 118.274 25.5409C119.202 26.5431 119.664 27.8371 119.664 29.4228ZM117.157 29.499C117.157 28.5211 116.943 27.6824 116.509 26.9829C116.002 26.1365 115.278 25.7144 114.34 25.7144C113.368 25.7144 112.63 26.1376 112.124 26.9829C111.69 27.6835 111.476 28.5355 111.476 29.5432C111.476 30.5211 111.69 31.3598 112.124 32.0582C112.646 32.9046 113.376 33.3267 114.318 33.3267C115.241 33.3267 115.965 32.8958 116.487 32.0361C116.933 31.3234 117.157 30.4758 117.157 29.499Z" fill="white"/>
<path d="M127.518 26.2798C127.279 26.2367 127.024 26.2146 126.757 26.2146C125.907 26.2146 125.249 26.5273 124.787 27.1538C124.385 27.7063 124.183 28.4047 124.183 29.2478V34.8115H121.768L121.79 27.5472C121.79 26.3251 121.76 25.2124 121.7 24.209H123.804L123.893 26.2378H123.96C124.215 25.5406 124.617 24.9792 125.168 24.5582C125.706 24.1792 126.287 23.9902 126.914 23.9902C127.137 23.9902 127.339 24.0057 127.518 24.0333V26.2798Z" fill="white"/>
<path d="M138.325 29.0084C138.325 29.4305 138.296 29.7863 138.236 30.0769H130.988C131.016 31.1245 131.366 31.9256 132.039 32.4781C132.65 32.972 133.44 33.2196 134.41 33.2196C135.483 33.2196 136.463 33.0527 137.343 32.7179L137.722 34.3533C136.693 34.7909 135.478 35.0085 134.076 35.0085C132.389 35.0085 131.066 34.5246 130.102 33.5577C129.141 32.5908 128.66 31.2924 128.66 29.6637C128.66 28.0647 129.107 26.7332 130.004 25.6713C130.942 24.5376 132.21 23.9707 133.806 23.9707C135.374 23.9707 136.56 24.5376 137.366 25.6713C138.004 26.5719 138.325 27.6857 138.325 29.0084ZM136.021 28.3973C136.037 27.699 135.879 27.0956 135.551 26.5862C135.133 25.931 134.491 25.6039 133.626 25.6039C132.836 25.6039 132.193 25.9232 131.703 26.5641C131.3 27.0735 131.061 27.6846 130.988 28.3962H136.021V28.3973Z" fill="white"/>
<path d="M50.1057 13.8912V8.40703H47.9458V7.50439H53.3274V8.40702H51.1721V13.8912H50.1057Z" fill="white"/>
<path d="M58.2869 12.5896C58.148 13.0301 57.8469 13.4112 57.4365 13.6661C57.026 13.921 56.5323 14.0335 56.0417 13.984C55.7003 13.9924 55.361 13.9316 55.0475 13.8058C54.7339 13.68 54.4535 13.4922 54.2258 13.2555C53.998 13.0188 53.8284 12.7388 53.7286 12.435C53.6289 12.1312 53.6014 11.8109 53.6481 11.4962C53.6026 11.1806 53.6306 10.8595 53.7301 10.5548C53.8296 10.2501 53.9984 9.96883 54.2249 9.73005C54.4515 9.49128 54.7305 9.30056 55.0432 9.17082C55.3558 9.04108 55.6948 8.97534 56.0372 8.97806C57.4789 8.97806 58.3487 9.89432 58.3487 11.4079V11.7397H54.6898V11.7931C54.6738 11.9699 54.6977 12.148 54.76 12.3158C54.8222 12.4835 54.9215 12.6374 55.0514 12.7674C55.1814 12.8974 55.3391 13.0007 55.5144 13.0707C55.6898 13.1407 55.8789 13.1758 56.0697 13.1739C56.3144 13.2012 56.5622 13.1602 56.7817 13.0562C57.0012 12.9521 57.1825 12.7897 57.3025 12.5895L58.2869 12.5896ZM54.6898 11.0363H57.307C57.3199 10.8745 57.2963 10.712 57.2376 10.5593C57.179 10.4065 57.0866 10.2668 56.9665 10.1492C56.8464 10.0317 56.7012 9.93874 56.5401 9.87646C56.3791 9.81419 56.2059 9.78395 56.0315 9.78766C55.8547 9.78559 55.6792 9.81648 55.5153 9.8785C55.3515 9.94052 55.2027 10.0324 55.0776 10.1488C54.9526 10.2652 54.8538 10.4036 54.7872 10.5561C54.7206 10.7085 54.6875 10.8718 54.6898 11.0363H54.6898ZM55.4225 8.26516L56.617 6.74268H57.8161L56.4788 8.26516H55.4225Z" fill="white"/>
<path d="M59.769 7.18945H60.7917V13.8909H59.769V7.18945Z" fill="white"/>
<path d="M66.8514 12.5896C66.7124 13.0301 66.4114 13.4112 66.0009 13.6661C65.5905 13.921 65.0968 14.0335 64.6061 13.984C64.2647 13.9924 63.9255 13.9316 63.6119 13.8058C63.2983 13.68 63.018 13.4922 62.7902 13.2555C62.5625 13.0188 62.3928 12.7388 62.2931 12.435C62.1933 12.1312 62.1658 11.8109 62.2125 11.4962C62.1671 11.1806 62.195 10.8595 62.2946 10.5548C62.3941 10.2501 62.5628 9.96883 62.7894 9.73005C63.0159 9.49128 63.295 9.30056 63.6076 9.17082C63.9203 9.04108 64.2593 8.97534 64.6016 8.97806C66.0434 8.97806 66.9132 9.89432 66.9132 11.4079V11.7397H63.2542V11.7931C63.2382 11.9699 63.2621 12.148 63.3244 12.3158C63.3867 12.4835 63.4859 12.6374 63.6159 12.7674C63.7458 12.8974 63.9035 13.0007 64.0789 13.0707C64.2542 13.1407 64.4434 13.1758 64.6342 13.1739C64.8788 13.2012 65.1266 13.1602 65.3461 13.0562C65.5656 12.9521 65.7469 12.7897 65.8669 12.5895L66.8514 12.5896ZM63.2542 11.0363H65.8714C65.8843 10.8745 65.8607 10.712 65.802 10.5593C65.7434 10.4065 65.6511 10.2668 65.5309 10.1492C65.4108 10.0317 65.2656 9.93874 65.1046 9.87646C64.9435 9.81419 64.7703 9.78395 64.596 9.78766C64.4191 9.78559 64.2436 9.81648 64.0797 9.8785C63.9159 9.94053 63.7671 10.0324 63.642 10.1488C63.517 10.2652 63.4183 10.4036 63.3517 10.5561C63.285 10.7085 63.2519 10.8718 63.2542 11.0363ZM63.9869 8.26516L65.1814 6.74268H66.3805L65.0433 8.26516H63.9869Z" fill="white"/>
<path d="M71.6792 10.646C71.614 10.3961 71.4547 10.1761 71.2302 10.026C71.0057 9.87585 70.7309 9.80546 70.4554 9.82755C69.5991 9.82755 69.0754 10.438 69.0754 11.465C69.0754 12.5098 69.6036 13.1339 70.4554 13.1339C70.7282 13.1633 71.0031 13.099 71.2284 12.953C71.4538 12.8071 71.6141 12.5897 71.6792 12.3415H72.6737C72.6079 12.8296 72.3398 13.2744 71.9264 13.5812C71.5131 13.888 70.9872 14.0324 70.461 13.9837C70.1146 13.9939 69.7699 13.9335 69.4511 13.8068C69.1323 13.6802 68.8472 13.4903 68.6155 13.2504C68.3839 13.0105 68.2114 12.7264 68.1102 12.418C68.0089 12.1096 67.9813 11.7844 68.0292 11.4651C67.9837 11.1481 68.0131 10.8257 68.1153 10.5203C68.2176 10.215 68.3902 9.93408 68.6213 9.69724C68.8523 9.46039 69.1361 9.2733 69.4529 9.14903C69.7697 9.02476 70.1118 8.96631 70.4554 8.97775C70.9859 8.9323 71.5146 9.0812 71.9288 9.39277C72.3431 9.70435 72.6104 10.154 72.6737 10.6461L71.6792 10.646Z" fill="white"/>
<path d="M74.0313 7.18945H75.0449V9.84559H75.1258C75.2618 9.56801 75.4864 9.33617 75.7691 9.18166C76.0519 9.02716 76.3789 8.95749 76.7058 8.98216C76.9566 8.96947 77.2073 9.00842 77.4401 9.09624C77.6728 9.18405 77.8819 9.31857 78.0523 9.4902C78.2228 9.66182 78.3504 9.86632 78.4261 10.0891C78.5018 10.3119 78.5237 10.5475 78.4903 10.779V13.8909H77.4665V11.0137C77.4665 10.2438 77.081 9.85394 76.3585 9.85394C76.1828 9.84053 76.006 9.863 75.8405 9.91979C75.6751 9.97658 75.525 10.0663 75.4007 10.1827C75.2764 10.2991 75.181 10.4393 75.1211 10.5936C75.0612 10.7479 75.0382 10.9125 75.0539 11.0759V13.8909H74.0312L74.0313 7.18945Z" fill="white"/>
<path d="M79.7754 12.5284C79.7754 11.6608 80.4699 11.1606 81.7026 11.0895L83.1062 11.0142V10.5982C83.1062 10.0891 82.7443 9.80169 82.0454 9.80169C81.4745 9.80169 81.0789 9.99664 80.9654 10.3374H79.9754C80.0799 9.50953 80.9171 8.97852 82.0925 8.97852C83.3916 8.97852 84.1237 9.58008 84.1237 10.5982V13.8915H83.1399V13.2141H83.059C82.8948 13.4571 82.6642 13.6552 82.3907 13.7881C82.1173 13.9211 81.8108 13.9841 81.5026 13.9709C81.2851 13.9919 81.0652 13.9703 80.8572 13.9075C80.6492 13.8447 80.4577 13.742 80.2949 13.6061C80.1322 13.4702 80.0019 13.3041 79.9124 13.1184C79.8229 12.9328 79.7762 12.7318 79.7754 12.5284ZM83.1062 12.1165V11.7136L81.8408 11.7888C81.1273 11.8333 80.8036 12.059 80.8036 12.484C80.8036 12.9178 81.2082 13.1702 81.7645 13.1702C81.9275 13.1855 82.0921 13.1702 82.2486 13.1252C82.4051 13.0801 82.5503 13.0063 82.6755 12.9079C82.8006 12.8096 82.9033 12.6889 82.9773 12.553C83.0513 12.417 83.0951 12.2686 83.1062 12.1165L83.1062 12.1165Z" fill="white"/>
<path d="M85.7256 9.07072H86.71V9.80975H86.7864C86.8966 9.5532 87.0914 9.33574 87.3427 9.18859C87.5941 9.04144 87.8891 8.97218 88.1855 8.99075C88.3386 8.98883 88.4916 9.00215 88.6417 9.03047V9.96921C88.454 9.93191 88.2627 9.91264 88.0708 9.91172C87.9022 9.89763 87.7322 9.91652 87.5719 9.96717C87.4115 10.0178 87.2643 10.0991 87.1398 10.2058C87.0152 10.3125 86.916 10.4423 86.8486 10.5868C86.7812 10.7313 86.747 10.8873 86.7482 11.0448V13.8907H85.7256L85.7256 9.07072Z" fill="white"/>
<path d="M89.5825 14.3735H90.6287C90.7152 14.7232 91.1478 14.949 91.8378 14.949C92.6896 14.949 93.1942 14.5727 93.1942 13.9356V13.0105H93.1178C92.9574 13.2694 92.7231 13.4821 92.4409 13.625C92.1587 13.7678 91.8395 13.8354 91.5187 13.8201C90.196 13.8201 89.3779 12.8688 89.3779 11.4258C89.3779 9.95611 90.205 8.99125 91.5288 8.99125C91.8577 8.98059 92.1834 9.05423 92.4704 9.2041C92.7573 9.35398 92.9945 9.57433 93.156 9.84109H93.2369V9.07122H94.2168V13.9308C94.2168 15.0331 93.2886 15.7324 91.8232 15.7324C90.5286 15.7325 89.6915 15.1925 89.5825 14.3735ZM93.2133 11.4211C93.2133 10.4609 92.6795 9.84579 91.8086 9.84579C90.9287 9.84579 90.4342 10.461 90.4342 11.4211C90.4342 12.3817 90.9287 12.9969 91.8086 12.9969C92.6851 12.9969 93.2133 12.3864 93.2133 11.421V11.4211Z" fill="white"/>
<path d="M100.227 12.5892C100.088 13.0297 99.7874 13.4107 99.3769 13.6656C98.9665 13.9206 98.4727 14.0331 97.9821 13.9836C97.6407 13.992 97.3015 13.9312 96.9879 13.8054C96.6743 13.6796 96.3939 13.4918 96.1662 13.2551C95.9385 13.0184 95.7688 12.7384 95.6691 12.4346C95.5693 12.1308 95.5418 11.8104 95.5885 11.4958C95.543 11.1801 95.571 10.8591 95.6705 10.5544C95.7701 10.2497 95.9388 9.96839 96.1653 9.72961C96.3919 9.49084 96.6709 9.30012 96.9836 9.17038C97.2963 9.04064 97.6352 8.9749 97.9776 8.97762C99.4194 8.97762 100.289 9.89388 100.289 11.4074V11.7393H96.6302V11.7926C96.6142 11.9695 96.6381 12.1475 96.7004 12.3153C96.7627 12.4831 96.862 12.6369 96.9919 12.7669C97.1218 12.8969 97.2795 13.0003 97.4549 13.0703C97.6302 13.1403 97.8194 13.1754 98.0102 13.1734C98.2548 13.2007 98.5026 13.1598 98.7221 13.0557C98.9416 12.9517 99.1229 12.7892 99.2429 12.5891L100.227 12.5892ZM96.6302 11.0358H99.2474C99.2603 10.8741 99.2367 10.7116 99.178 10.5588C99.1194 10.4061 99.027 10.2664 98.9069 10.1488C98.7868 10.0312 98.6416 9.9383 98.4805 9.87603C98.3195 9.81376 98.1463 9.78351 97.9719 9.78722C97.7951 9.78516 97.6196 9.81605 97.4557 9.87807C97.2919 9.9401 97.1431 10.032 97.018 10.1484C96.893 10.2647 96.7943 10.4032 96.7277 10.5556C96.6611 10.708 96.6279 10.8713 96.6302 11.0358H96.6302Z" fill="white"/>
<path d="M101.663 9.07072H102.648V9.80975H102.724C102.834 9.5532 103.029 9.33574 103.28 9.18859C103.532 9.04144 103.827 8.97218 104.123 8.99075C104.276 8.98883 104.429 9.00215 104.579 9.03047V9.96921C104.392 9.93191 104.2 9.91264 104.008 9.91172C103.84 9.89762 103.67 9.9165 103.509 9.96715C103.349 10.0178 103.202 10.0991 103.077 10.2058C102.953 10.3125 102.854 10.4423 102.786 10.5868C102.719 10.7313 102.684 10.8873 102.686 11.0448V13.8907H101.663V9.07072Z" fill="white"/>
<path d="M108.264 11.4789C108.264 9.95586 109.105 8.99104 110.415 8.99104C110.738 8.97716 111.06 9.04931 111.341 9.19905C111.623 9.34879 111.852 9.56994 112.003 9.83665H112.08V7.18945H113.103V13.8909H112.123V13.1294H112.042C111.879 13.3943 111.641 13.6127 111.354 13.761C111.067 13.9092 110.742 13.9816 110.415 13.9704C109.096 13.9704 108.264 13.0055 108.264 11.4789ZM109.32 11.4789C109.32 12.5012 109.838 13.1164 110.704 13.1164C111.566 13.1164 112.099 12.4923 112.099 11.4831C112.099 10.4785 111.561 9.84558 110.704 9.84558C109.844 9.84558 109.32 10.465 109.32 11.4789H109.32Z" fill="white"/>
<path d="M114.485 12.5284C114.485 11.6608 115.179 11.1606 116.412 11.0895L117.816 11.0142V10.5982C117.816 10.0891 117.454 9.80169 116.755 9.80169C116.184 9.80169 115.788 9.99664 115.675 10.3374H114.685C114.789 9.50953 115.627 8.97852 116.802 8.97852C118.101 8.97852 118.834 9.58008 118.834 10.5982V13.8915H117.849V13.2141H117.768C117.604 13.4571 117.374 13.6552 117.1 13.7881C116.827 13.9211 116.52 13.9841 116.212 13.9709C115.995 13.9919 115.775 13.9703 115.567 13.9075C115.359 13.8447 115.167 13.742 115.004 13.6061C114.842 13.4702 114.711 13.3041 114.622 13.1184C114.532 12.9328 114.486 12.7318 114.485 12.5284ZM117.816 12.1165V11.7136L116.55 11.7888C115.837 11.8332 115.513 12.059 115.513 12.4839C115.513 12.9177 115.918 13.1702 116.474 13.1702C116.637 13.1855 116.802 13.1702 116.958 13.1252C117.115 13.0801 117.26 13.0062 117.385 12.9079C117.51 12.8096 117.613 12.6889 117.687 12.5529C117.761 12.417 117.805 12.2686 117.816 12.1165V12.1165Z" fill="white"/>
<path d="M120.435 9.07093H121.419V9.83661H121.496C121.626 9.56161 121.844 9.33107 122.121 9.17714C122.399 9.02322 122.72 8.95356 123.042 8.97789C123.294 8.96026 123.547 8.99562 123.783 9.08135C124.018 9.16709 124.23 9.301 124.402 9.47316C124.574 9.64533 124.703 9.85134 124.778 10.0759C124.853 10.3005 124.873 10.5379 124.836 10.7706V13.8908H123.813V11.0095C123.813 10.2349 123.451 9.84968 122.695 9.84968C122.524 9.84227 122.353 9.86937 122.194 9.92913C122.035 9.98889 121.892 10.0799 121.775 10.1959C121.657 10.3119 121.568 10.4502 121.513 10.6013C121.458 10.7523 121.44 10.9126 121.458 11.0711V13.8908H120.435V9.07093Z" fill="white"/>
<path d="M128.311 8.97852C129.477 8.97852 130.239 9.48288 130.339 10.3327H129.358C129.263 9.97888 128.891 9.7531 128.311 9.7531C127.741 9.7531 127.307 10.005 127.307 10.3813C127.307 10.6693 127.569 10.8507 128.131 10.9704L128.991 11.1559C129.977 11.3686 130.439 11.7627 130.439 12.4709C130.439 13.3782 129.53 13.9845 128.292 13.9845C127.06 13.9845 126.256 13.4665 126.165 12.6125H127.189C127.277 12.8158 127.436 12.9856 127.64 13.0947C127.845 13.2038 128.083 13.2458 128.316 13.2141C128.953 13.2141 129.406 12.9486 129.406 12.5634C129.406 12.2759 129.163 12.0899 128.644 11.9749L127.741 11.7799C126.755 11.563 126.299 11.1517 126.299 10.4346C126.299 9.58009 127.14 8.97852 128.311 8.97852Z" fill="white"/>
</svg>
