<svg width="16" height="16" viewBox="0 0 16 16" fill="none" xmlns="http://www.w3.org/2000/svg">
<g id="Delete - Iconly Pro">
<path id="Vector" fill-rule="evenodd" clip-rule="evenodd" d="M3.68625 6.37635C3.96165 6.35623 4.20123 6.56318 4.22135 6.8386L4.62932 12.4223C4.69459 13.3169 5.43964 14.0097 6.33587 14.0097H10.3313C11.2281 14.0097 11.9725 13.317 12.0378 12.4231L12.4457 6.8386C12.4659 6.56319 12.7055 6.35623 12.9809 6.37635C13.2563 6.39647 13.4632 6.63605 13.4431 6.91147L13.0351 12.4959C12.9317 13.9122 11.7524 15.0097 10.3313 15.0097H6.33587C4.91534 15.0097 3.73537 13.9122 3.63197 12.4952L3.22401 6.91147C3.20389 6.63605 3.41083 6.39647 3.68625 6.37635Z" fill="#003840"/>
<path id="Vector_2" fill-rule="evenodd" clip-rule="evenodd" d="M2.32373 4.77856C2.32373 4.50242 2.54759 4.27856 2.82373 4.27856H13.8434C14.1196 4.27856 14.3434 4.50242 14.3434 4.77856C14.3434 5.0547 14.1196 5.27856 13.8434 5.27856H2.82373C2.54759 5.27856 2.32373 5.0547 2.32373 4.77856Z" fill="#003840"/>
<path id="Vector_3" fill-rule="evenodd" clip-rule="evenodd" d="M6.96223 2.0105H9.7089C10.3112 2.0105 10.8397 2.41528 10.9956 2.99817C10.9982 3.00796 11.0005 3.01784 11.0025 3.02778L11.3378 4.67846C11.3928 4.94908 11.218 5.21302 10.9474 5.26799C10.6768 5.32296 10.4128 5.14816 10.3578 4.87754L10.0262 3.24514C9.98383 3.10638 9.8551 3.0105 9.7089 3.0105H6.95976C6.81223 3.01 6.68316 3.10576 6.6403 3.245L6.31206 4.87662C6.25759 5.14733 5.99398 5.32264 5.72326 5.26818C5.45254 5.21372 5.27723 4.9501 5.3317 4.67939L5.66378 3.02871C5.66586 3.01833 5.66828 3.00802 5.67102 2.9978C5.82776 2.41341 6.35799 2.00886 6.96223 2.0105Z" fill="#003840"/>
<path id="Vector_4" fill-rule="evenodd" clip-rule="evenodd" d="M7.0679 7.8645C7.34403 7.8645 7.5679 8.08837 7.5679 8.3645V11.3701C7.5679 11.6462 7.34403 11.8701 7.0679 11.8701C6.7917 11.8701 6.56787 11.6462 6.56787 11.3701V8.3645C6.56787 8.08837 6.7917 7.8645 7.0679 7.8645ZM9.3215 7.8645C9.59763 7.8645 9.8215 8.08837 9.8215 8.3645V11.3701C9.8215 11.6462 9.59763 11.8701 9.3215 11.8701C9.04536 11.8701 8.8215 11.6462 8.8215 11.3701V8.3645C8.8215 8.08837 9.04536 7.8645 9.3215 7.8645Z" fill="#003840"/>
</g>
</svg>
