<svg width="25" height="25" viewBox="0 0 25 25" fill="none" xmlns="http://www.w3.org/2000/svg">
<g id="devicon:google" clip-path="url(#clip0_2699_27)">
<path id="Vector" d="M9.30538 1.03553C6.90741 1.8674 4.8394 3.44634 3.40511 5.5404C1.97082 7.63447 1.24586 10.1333 1.33671 12.6698C1.42755 15.2064 2.32942 17.6469 3.90983 19.633C5.49025 21.6191 7.66591 23.0461 10.1173 23.7043C12.1046 24.2171 14.1868 24.2396 16.1848 23.7699C17.9947 23.3633 19.6681 22.4937 21.041 21.2462C22.4699 19.9081 23.5071 18.2058 24.041 16.3224C24.6214 14.2743 24.7246 12.1204 24.3429 10.0262H13.1829V14.6555H19.646C19.5168 15.3939 19.24 16.0986 18.8322 16.7275C18.4243 17.3563 17.8937 17.8965 17.2723 18.3155C16.483 18.8376 15.5934 19.1889 14.6604 19.3468C13.7246 19.5208 12.7649 19.5208 11.8291 19.3468C10.8807 19.1507 9.98356 18.7593 9.19475 18.1974C7.92753 17.3004 6.97602 16.026 6.476 14.5562C5.96753 13.0588 5.96753 11.4354 6.476 9.93803C6.83193 8.88843 7.42032 7.93278 8.19725 7.1424C9.08636 6.2213 10.212 5.5629 11.4507 5.23942C12.6893 4.91594 13.9932 4.9399 15.2191 5.30865C16.1768 5.60264 17.0526 6.11628 17.7766 6.80865C18.5054 6.08365 19.2329 5.35678 19.9591 4.62803C20.3341 4.23615 20.7429 3.86303 21.1123 3.46178C20.0071 2.43329 18.7098 1.63301 17.2948 1.10678C14.7179 0.171132 11.8985 0.145988 9.30538 1.03553Z" fill="white"/>
<path id="Vector_2" d="M9.30553 1.03546C11.8984 0.145318 14.7179 0.1698 17.2949 1.10484C18.7102 1.63464 20.0069 2.43878 21.1105 3.47109C20.7355 3.87234 20.3399 4.24734 19.9574 4.63734C19.2299 5.36359 18.503 6.08734 17.7768 6.80859C17.0527 6.11622 16.177 5.60257 15.2193 5.30859C13.9937 4.93854 12.6899 4.9132 11.4509 5.23535C10.2119 5.55751 9.08561 6.2147 8.19553 7.13484C7.41859 7.92522 6.8302 8.88087 6.47428 9.93046L2.5874 6.92109C3.97867 4.16214 6.38756 2.05176 9.30553 1.03546Z" fill="#E33629"/>
<path id="Vector_3" d="M1.55623 9.90215C1.76514 8.86676 2.11198 7.86407 2.58748 6.9209L6.47435 9.93777C5.96588 11.4352 5.96588 13.0585 6.47435 14.5559C5.17935 15.5559 3.88373 16.5609 2.58748 17.5709C1.39713 15.2015 1.0341 12.5018 1.55623 9.90215Z" fill="#F8BD00"/>
<path id="Vector_4" d="M13.183 10.0244H24.343C24.7247 12.1187 24.6214 14.2725 24.0411 16.3207C23.5072 18.2041 22.47 19.9063 21.0411 21.2444C19.7867 20.2657 18.5267 19.2944 17.2723 18.3157C17.8942 17.8962 18.425 17.3555 18.8329 16.7259C19.2408 16.0964 19.5174 15.3909 19.6461 14.6519H13.183C13.1811 13.1107 13.183 11.5675 13.183 10.0244Z" fill="#587DBD"/>
<path id="Vector_5" d="M2.58545 17.5712C3.8817 16.5712 5.17732 15.5662 6.47232 14.5562C6.97334 16.0265 7.92621 17.301 9.19482 18.1974C9.98609 18.7566 10.8852 19.1449 11.8348 19.3374C12.7706 19.5114 13.7303 19.5114 14.6661 19.3374C15.5991 19.1795 16.4887 18.8282 17.2779 18.3062C18.5323 19.2849 19.7923 20.2562 21.0467 21.2349C19.674 22.4831 18.0006 23.3534 16.1904 23.7605C14.1925 24.2302 12.1103 24.2077 10.1229 23.6949C8.55114 23.2752 7.08297 22.5354 5.81045 21.5218C4.46356 20.4524 3.36349 19.1049 2.58545 17.5712Z" fill="#319F43"/>
</g>
<defs>
<clipPath id="clip0_2699_27">
<rect width="24" height="24" fill="white" transform="translate(0.944824 0.246094)"/>
</clipPath>
</defs>
</svg>
