<svg width="153" height="45" viewBox="0 0 153 45" fill="none" xmlns="http://www.w3.org/2000/svg">
<path d="M147.333 44.2607H5.66667C2.55142 44.2607 0 41.7697 0 38.7281V5.53251C0 2.49096 2.55142 -9.56666e-05 5.66667 -9.56666e-05H147.333C150.449 -9.56666e-05 153 2.49096 153 5.53251V38.7281C153 41.7697 150.449 44.2607 147.333 44.2607Z" fill="black"/>
<path d="M147.333 0.886503C149.957 0.886503 152.092 2.97091 152.092 5.53251V38.7281C152.092 41.2897 149.957 43.3741 147.333 43.3741H5.66667C3.043 43.3741 0.908083 41.2897 0.908083 38.7281V5.53251C0.908083 2.97091 3.043 0.886503 5.66667 0.886503H147.333ZM147.333 -9.56666e-05H5.66667C2.55142 -9.56666e-05 0 2.49096 0 5.53251V38.7281C0 41.7697 2.55142 44.2607 5.66667 44.2607H147.333C150.449 44.2607 153 41.7697 153 38.7281V5.53251C153 2.49096 150.449 -9.56666e-05 147.333 -9.56666e-05Z" fill="#A6A6A6"/>
<path d="M77.2189 24.0697C74.557 24.0697 72.3824 26.0476 72.3824 28.7765C72.3824 31.4833 74.557 33.482 77.2189 33.482C79.8865 33.482 82.0611 31.4833 82.0611 28.7765C82.0611 26.0476 79.8865 24.0697 77.2189 24.0697ZM77.2189 31.6286C75.7583 31.6286 74.5017 30.4515 74.5017 28.7765C74.5017 27.0794 75.7583 25.9231 77.2189 25.9231C78.6795 25.9231 79.9417 27.0794 79.9417 28.7765C79.9417 30.4515 78.6795 31.6286 77.2189 31.6286ZM66.6661 24.0697C63.9986 24.0697 61.8296 26.0476 61.8296 28.7765C61.8296 31.4833 63.9986 33.482 66.6661 33.482C69.3323 33.482 71.5026 31.4833 71.5026 28.7765C71.5026 26.0476 69.3323 24.0697 66.6661 24.0697ZM66.6661 31.6286C65.2041 31.6286 63.9433 30.4515 63.9433 28.7765C63.9433 27.0794 65.2041 25.9231 66.6661 25.9231C68.1267 25.9231 69.3833 27.0794 69.3833 28.7765C69.3833 30.4515 68.1267 31.6286 66.6661 31.6286ZM54.1088 25.5123V27.5123H59.0006C58.8575 28.6299 58.475 29.4515 57.8885 30.0241C57.1745 30.7157 56.0624 31.4833 54.1088 31.4833C51.0984 31.4833 48.7411 29.1112 48.7411 26.172C48.7411 23.2328 51.0984 20.8607 54.1088 20.8607C55.7366 20.8607 56.9209 21.4818 57.795 22.2868L59.2386 20.8773C58.016 19.7376 56.3896 18.8621 54.1088 18.8621C49.9806 18.8621 46.5112 22.1415 46.5112 26.172C46.5112 30.2025 49.9806 33.482 54.1088 33.482C56.3401 33.482 58.016 32.7683 59.3335 31.4294C60.6836 30.1113 61.1043 28.2578 61.1043 26.7613C61.1043 26.2965 61.0646 25.8691 60.9938 25.5123H54.1088ZM105.457 27.0628C105.059 26.0102 103.831 24.0697 101.329 24.0697C98.85 24.0697 96.7859 25.977 96.7859 28.7765C96.7859 31.4128 98.8287 33.482 101.567 33.482C103.781 33.482 105.059 32.1638 105.585 31.3962L103.941 30.327C103.393 31.1099 102.647 31.6286 101.567 31.6286C100.495 31.6286 99.7255 31.1486 99.2325 30.2025L105.68 27.5981L105.457 27.0628ZM98.884 28.6299C98.8287 26.8152 100.328 25.8857 101.401 25.8857C102.243 25.8857 102.957 26.2965 103.195 26.8844L98.884 28.6299ZM93.6437 33.1957H95.763V19.3642H93.6437V33.1957ZM90.1729 25.1181H90.102C89.626 24.5676 88.718 24.0697 87.5676 24.0697C85.1536 24.0697 82.9465 26.1388 82.9465 28.7917C82.9465 31.4294 85.1536 33.482 87.5676 33.482C88.718 33.482 89.626 32.9799 90.102 32.4128H90.1729V33.0878C90.1729 34.8873 89.1883 35.8541 87.6002 35.8541C86.3054 35.8541 85.5021 34.9412 85.1706 34.1736L83.3275 34.9246C83.8588 36.1722 85.2655 37.7075 87.6002 37.7075C90.085 37.7075 92.1817 36.2801 92.1817 32.807V24.356H90.1729V25.1181ZM87.749 31.6286C86.2884 31.6286 85.0658 30.4349 85.0658 28.7917C85.0658 27.1333 86.2884 25.9231 87.749 25.9231C89.1883 25.9231 90.3231 27.1333 90.3231 28.7917C90.3231 30.4349 89.1883 31.6286 87.749 31.6286ZM115.38 19.3642H110.311V33.1957H112.424V27.9549H115.38C117.727 27.9549 120.029 26.2965 120.029 23.6589C120.029 21.0226 117.721 19.3642 115.38 19.3642ZM115.435 26.031H112.424V21.2881H115.435C117.013 21.2881 117.914 22.5676 117.914 23.6589C117.914 24.7294 117.013 26.031 115.435 26.031ZM128.501 24.0434C126.974 24.0434 125.386 24.7018 124.732 26.161L126.608 26.9286C127.012 26.161 127.754 25.912 128.539 25.912C129.636 25.912 130.748 26.5552 130.765 27.6907V27.836C130.382 27.6202 129.563 27.3007 128.556 27.3007C126.536 27.3007 124.477 28.3865 124.477 30.4128C124.477 32.2662 126.132 33.4599 127.992 33.4599C129.415 33.4599 130.199 32.8333 130.692 32.1044H130.765V33.1735H132.806V27.8678C132.806 25.4155 130.93 24.0434 128.501 24.0434ZM128.246 31.623C127.554 31.623 126.591 31.2883 126.591 30.4515C126.591 29.381 127.792 28.9702 128.832 28.9702C129.763 28.9702 130.199 29.1707 130.765 29.4349C130.599 30.7157 129.47 31.623 128.246 31.623ZM140.244 24.3463L137.814 30.3422H137.742L135.23 24.3463H132.951L136.725 32.7254L134.571 37.388H136.78L142.595 24.3463H140.244ZM121.191 33.1957H123.31V19.3642H121.191V33.1957Z" fill="white"/>
<path d="M11.8264 8.34153C11.4934 8.68178 11.3008 9.21153 11.3008 9.89757V34.3683C11.3008 35.0543 11.4934 35.5841 11.8264 35.9243L11.9085 35.999L25.9534 22.292V21.9683L11.9085 8.26131L11.8264 8.34153Z" fill="url(#paint0_linear_598_24146)"/>
<path d="M30.6295 26.8633L25.9531 22.292V21.9683L30.6352 17.397L30.74 17.4565L36.2849 20.5367C37.8673 21.4109 37.8673 22.8494 36.2849 23.7291L30.74 26.8038L30.6295 26.8633Z" fill="url(#paint1_linear_598_24146)"/>
<path d="M30.7401 26.8038L25.9532 22.1301L11.8262 35.9243C12.3518 36.4637 13.2088 36.5287 14.1835 35.9893L30.7401 26.8038Z" fill="url(#paint2_linear_598_24146)"/>
<path d="M30.7401 17.4567L14.1835 8.2712C13.2088 7.7373 12.3518 7.80231 11.8262 8.34174L25.9532 22.1304L30.7401 17.4567Z" fill="url(#paint3_linear_598_24146)"/>
<path d="M47.5285 13.8778V13.9938H48.7723C49.6024 13.9947 50.2801 13.755 50.7776 13.2703C51.2778 12.785 51.5234 12.1032 51.5225 11.2533C51.5234 10.4098 51.2774 9.72972 50.7781 9.24133C50.2806 8.75388 49.6028 8.51195 48.7723 8.51288H47.5285H47.4117V13.9938H47.5285V13.8778H47.6454V8.74483H48.7723C49.5595 8.74622 50.1647 8.96867 50.6138 9.40672V9.40625C51.0616 9.84569 51.2879 10.4514 51.2888 11.2533C51.2879 12.0616 51.0611 12.6695 50.6142 13.1044C50.1647 13.5403 49.56 13.7604 48.7723 13.7618H47.5285V13.8778ZM46.6281 14.7327H46.7449V14.6167V7.88996H48.7723C49.8265 7.89089 50.6512 8.20205 51.2751 8.82323C51.8976 9.44569 52.2084 10.2462 52.2098 11.2533C52.2084 12.26 51.8976 13.0609 51.2751 13.6834C50.6512 14.3046 49.8265 14.6157 48.7723 14.6167H46.7449H46.6281V14.7327V14.8486H48.7723C49.8722 14.8496 50.7703 14.5166 51.4403 13.8474C52.1093 13.181 52.4444 12.3066 52.4435 11.2533C52.4444 10.1991 52.1093 9.32565 51.4408 8.6597C50.7703 7.99005 49.8722 7.65707 48.7723 7.658H46.5112V14.8486H46.6281V14.7327Z" fill="white"/>
<path fill-rule="evenodd" clip-rule="evenodd" d="M46.7449 14.6167V7.88996H48.7723C49.8265 7.89089 50.6512 8.20205 51.2751 8.82323C51.8976 9.44569 52.2084 10.2462 52.2098 11.2533C52.2084 12.26 51.8976 13.0609 51.2751 13.6834C50.6512 14.3046 49.8265 14.6157 48.7723 14.6167H46.7449ZM47.5285 13.9938H48.7723C49.6024 13.9947 50.2801 13.755 50.7776 13.2703C51.2778 12.785 51.5234 12.1032 51.5225 11.2533C51.5234 10.4098 51.2774 9.72972 50.7781 9.24133C50.2806 8.75388 49.6028 8.51195 48.7723 8.51288H47.5285H47.4117V13.9938H47.5285Z" fill="white"/>
<path d="M53.5905 14.7327H53.7073V14.6167V7.88996H54.3741V14.6167H53.7073H53.5905V14.7327V14.8486H54.4909H54.6078V7.65801H53.5905H53.4736V14.8486H53.5905V14.7327Z" fill="white"/>
<path d="M53.7073 14.6167V7.88996H54.3741V14.6167H53.7073Z" fill="white"/>
<path d="M58.0743 14.8879V14.772C57.5914 14.7715 57.1186 14.6165 56.6476 14.2971C56.2105 13.9991 55.9194 13.5963 55.7666 13.0718C55.7574 13.0399 55.7486 13.0075 55.7403 12.9748L55.6271 13.0024L55.6709 13.1102L55.7666 13.0718L56.3731 12.8282L56.4933 12.7799L56.4495 12.6721L56.3363 12.7011C56.3473 12.7441 56.3596 12.7865 56.3731 12.8282C56.4864 13.1777 56.6881 13.4798 56.9739 13.7263L56.9744 13.7268C57.2961 14.0045 57.6681 14.1495 58.0743 14.1486C58.486 14.149 58.8492 14.0398 59.1478 13.8201C59.4526 13.5986 59.6128 13.2755 59.6105 12.8954C59.6128 12.4805 59.4562 12.1357 59.1495 11.9046C58.8524 11.68 58.4034 11.482 57.7958 11.2976H57.7968C57.187 11.1077 56.7334 10.8627 56.4326 10.5718C56.1359 10.285 55.9891 9.92849 55.9881 9.47455C55.9891 9.00704 56.1702 8.61017 56.5486 8.25725C56.9238 7.91024 57.4084 7.73488 58.025 7.73395C58.601 7.73442 59.0537 7.87626 59.4015 8.15124C59.7235 8.40673 59.9374 8.67714 60.0518 8.9628C60.065 8.99575 60.0769 9.0289 60.0875 9.06225L60.1988 9.0278L60.1541 8.92052L60.0518 8.9628L59.4476 9.21265L59.3326 9.26022L59.3773 9.36715L59.49 9.33723C59.4786 9.29501 59.4644 9.25348 59.4476 9.21265C59.3654 9.01301 59.2189 8.83012 59.0154 8.66537C58.7597 8.45835 58.4303 8.35734 58.0446 8.3578C57.6777 8.35734 57.3523 8.46067 57.0866 8.66955L57.0871 8.66908C56.8187 8.8761 56.6731 9.15561 56.675 9.47455C56.6731 9.76809 56.8096 10.0278 57.0565 10.2212L57.057 10.2216C57.2997 10.4123 57.6421 10.5768 58.0871 10.7218L58.0875 10.7222C58.4307 10.8314 58.7155 10.9369 58.9424 11.0384H58.9428C59.1655 11.1377 59.3937 11.2717 59.6256 11.4393H59.626C59.8492 11.6002 60.0144 11.7977 60.1272 12.0365C60.2398 12.2744 60.2974 12.5529 60.2974 12.8759C60.2974 13.1977 60.2317 13.4785 60.1011 13.7263C59.9683 13.9768 59.7954 14.1712 59.5799 14.3157C59.3577 14.4647 59.1198 14.578 58.8629 14.6555C58.6055 14.7334 58.3436 14.772 58.0743 14.772V14.8879V15.0039C58.3663 15.0039 58.6521 14.9618 58.9309 14.8775C59.2103 14.7932 59.47 14.6695 59.7109 14.5082V14.5078C59.9592 14.3416 60.16 14.1155 60.3078 13.8337C60.4581 13.5501 60.5315 13.2289 60.5311 12.8759C60.5315 12.5258 60.468 12.2119 60.3389 11.9377C60.2098 11.6646 60.0162 11.4335 59.7629 11.2513L59.7634 11.2518C59.5201 11.0761 59.2787 10.9338 59.0382 10.8269H59.0386C58.7999 10.7199 58.5074 10.6126 58.1592 10.5012H58.1597C57.7311 10.362 57.4111 10.2049 57.2021 10.0399H57.2025C56.9999 9.87688 56.9104 9.69931 56.9087 9.47455C56.9104 9.22357 57.0091 9.02745 57.2313 8.85163L57.2317 8.85117C57.4546 8.6772 57.7201 8.59022 58.0446 8.58976C58.3915 8.59022 58.6598 8.6772 58.8675 8.84525L58.8689 8.84618L58.8675 8.84479C59.0856 9.02247 59.2129 9.20676 59.2646 9.39754L59.2988 9.52535L60.2436 9.13474L60.3421 9.09403L60.3102 8.99301C60.191 8.61562 59.9318 8.27488 59.5471 7.96951C59.1509 7.65556 58.6383 7.50154 58.025 7.502C57.3641 7.50107 56.8105 7.69638 56.3892 8.0878C55.9712 8.47331 55.7531 8.94407 55.7545 9.47455C55.7531 9.97975 55.9274 10.4105 56.2702 10.7385C56.6083 11.0638 57.0948 11.3216 57.7265 11.5191H57.7274C58.3203 11.6985 58.7497 11.8925 59.0072 12.0886C59.255 12.2794 59.3745 12.5335 59.3769 12.8954C59.3745 13.2153 59.2586 13.4473 59.009 13.6334C58.753 13.8215 58.4458 13.9162 58.0743 13.9166C57.7228 13.9157 57.4148 13.7979 57.1273 13.5514H57.1278C56.8412 13.3032 56.6559 13.0047 56.5627 12.6435L56.5298 12.5149L55.5833 12.895L55.4888 12.9325L55.5134 13.0304C55.6681 13.6507 56.0054 14.1431 56.5156 14.4884C57.0172 14.8295 57.5398 15.0039 58.0743 15.0039V14.8879Z" fill="white"/>
<path d="M58.0743 14.772C57.5914 14.7715 57.1186 14.6165 56.6476 14.2971C56.2105 13.9991 55.9194 13.5963 55.7666 13.0718L56.3731 12.8282C56.4864 13.1777 56.6881 13.4798 56.9739 13.7263L56.9744 13.7268C57.2961 14.0045 57.6681 14.1495 58.0743 14.1486C58.486 14.149 58.8492 14.0398 59.1478 13.8201C59.4526 13.5986 59.6128 13.2755 59.6105 12.8954C59.6128 12.4805 59.4562 12.1357 59.1495 11.9046C58.8524 11.68 58.4034 11.482 57.7958 11.2976H57.7968C57.187 11.1077 56.7334 10.8627 56.4326 10.5718C56.1359 10.285 55.9891 9.92849 55.9881 9.47455C55.9891 9.00704 56.1702 8.61017 56.5486 8.25725C56.9238 7.91024 57.4084 7.73488 58.025 7.73395C58.601 7.73442 59.0537 7.87626 59.4015 8.15124C59.7235 8.40673 59.9374 8.67714 60.0518 8.9628L59.4476 9.21265C59.3654 9.01301 59.2189 8.83012 59.0154 8.66537C58.7597 8.45835 58.4303 8.35734 58.0446 8.3578C57.6777 8.35734 57.3523 8.46067 57.0866 8.66955L57.0871 8.66908C56.8187 8.8761 56.6731 9.15561 56.675 9.47455C56.6731 9.76809 56.8096 10.0278 57.0565 10.2212L57.057 10.2216C57.2997 10.4123 57.6421 10.5768 58.0871 10.7218L58.0875 10.7222C58.4307 10.8314 58.7155 10.9369 58.9424 11.0384H58.9428C59.1655 11.1377 59.3937 11.2717 59.6256 11.4393H59.626C59.8492 11.6002 60.0144 11.7977 60.1272 12.0365C60.2398 12.2744 60.2974 12.5529 60.2974 12.8759C60.2974 13.1977 60.2317 13.4785 60.1011 13.7263C59.9683 13.9768 59.7954 14.1712 59.5799 14.3157C59.3577 14.4647 59.1198 14.578 58.8629 14.6555C58.6055 14.7334 58.3436 14.772 58.0743 14.772Z" fill="white"/>
<path d="M62.6067 11.0585V11.1745H64.1145C64.5189 11.1758 64.863 11.0354 65.1122 10.7577C65.3564 10.4881 65.4852 10.1782 65.4847 9.84442C65.4852 9.51052 65.3564 9.20016 65.1122 8.93109C64.863 8.6524 64.5189 8.51149 64.1145 8.51288H62.6067H62.4898V11.1745H62.6067V11.0585H62.7235V8.74483H64.1145C64.4679 8.74669 64.7312 8.85815 64.9384 9.08593C65.1505 9.32206 65.2501 9.56897 65.251 9.84442C65.2501 10.1199 65.1505 10.3659 64.9384 10.6028C64.7312 10.8302 64.4683 10.9412 64.1145 10.9425H62.6067V11.0585ZM62.6067 14.7327V14.6167H62.4898H61.823V7.88996H64.0954C64.6627 7.89089 65.1438 8.07436 65.5582 8.4477C65.9698 8.82045 66.1702 9.27578 66.1716 9.84442C66.1702 10.412 65.9698 10.8669 65.5582 11.2402C65.1438 11.6139 64.6627 11.7974 64.0954 11.7983H62.6067H62.4898V14.6167V14.7327H62.6067H62.7235V12.0303H64.0954C64.7147 12.0312 65.2628 11.8223 65.7156 11.4114C66.1733 11.001 66.4065 10.4681 66.4053 9.84442C66.4065 9.22011 66.1733 8.68684 65.7156 8.27594C65.2628 7.86549 64.7147 7.65708 64.0954 7.65801H61.5894V14.8486H62.6067H62.7235V14.7327H62.6067Z" fill="white"/>
<path fill-rule="evenodd" clip-rule="evenodd" d="M62.4898 14.6167H61.823V7.88996H64.0954C64.6627 7.89089 65.1438 8.07436 65.5582 8.4477C65.9698 8.82045 66.1702 9.27578 66.1716 9.84442C66.1702 10.412 65.9698 10.8669 65.5582 11.2402C65.1438 11.6139 64.6627 11.7974 64.0954 11.7983H62.6067H62.4898V14.6167ZM62.6067 11.1745H64.1145C64.5189 11.1758 64.863 11.0354 65.1122 10.7577C65.3564 10.4881 65.4852 10.1782 65.4847 9.84442C65.4852 9.51052 65.3564 9.20016 65.1122 8.93109C64.863 8.6524 64.5189 8.51149 64.1145 8.51288H62.6067H62.4898V11.1745H62.6067Z" fill="white"/>
<path d="M68.6808 13.2507L68.5978 13.3322C69.1364 13.8745 69.8072 14.15 70.5854 14.1486C71.3635 14.15 72.0358 13.8745 72.573 13.3322C73.1143 12.7894 73.3868 12.0872 73.3858 11.2532C73.3868 10.4192 73.1143 9.71694 72.573 9.17417C72.0358 8.63185 71.3635 8.35641 70.5854 8.3578C69.8072 8.35641 69.1364 8.63185 68.5978 9.17417C68.0574 9.71694 67.7849 10.4192 67.7859 11.2532C67.7849 12.0872 68.0574 12.7894 68.5978 13.3322L68.6808 13.2507L68.7644 13.1691C68.2687 12.6685 68.0209 12.0387 68.02 11.2532C68.0209 10.4677 68.2687 9.83791 68.7644 9.33723H68.7639C69.2641 8.83667 69.862 8.59115 70.5854 8.58975C71.3087 8.59115 71.9075 8.83667 72.4064 9.33723C72.9034 9.83791 73.1512 10.4677 73.1522 11.2532C73.1512 12.0387 72.9034 12.6685 72.4064 13.1691C71.9075 13.6697 71.3087 13.9152 70.5854 13.9166C69.862 13.9152 69.2641 13.6697 68.7639 13.1691L68.6808 13.2507ZM73.1563 13.8332L73.0723 13.7526C72.4028 14.434 71.583 14.7706 70.5854 14.7719C69.5877 14.7706 68.768 14.434 68.0999 13.7526L68.0962 13.749L68.0994 13.7526C67.4313 13.0689 67.1013 12.2444 67.1004 11.2532C67.1013 10.2619 67.4313 9.43744 68.0994 8.75375H68.0999C68.768 8.07238 69.5877 7.73535 70.5854 7.73395C71.5771 7.73535 72.3945 8.07377 73.0677 8.75873C73.7386 9.44555 74.0709 10.2688 74.0718 11.2532C74.0709 12.2444 73.7395 13.0689 73.0723 13.7526L73.1563 13.8332L73.2398 13.9138C73.9485 13.1918 74.3064 12.2961 74.3055 11.2532C74.3064 10.2162 73.9471 9.32238 73.2352 8.59706C72.5232 7.86895 71.6314 7.50072 70.5854 7.502C69.5338 7.50072 68.6398 7.86721 67.9319 8.59254V8.59207C67.2222 9.31461 66.8653 10.2103 66.8667 11.2532C66.8653 12.2961 67.2222 13.1918 67.9319 13.9143V13.9138C68.6398 14.6392 69.5338 15.0048 70.5854 15.0039C71.6369 15.0048 72.531 14.6392 73.2398 13.9138L73.1563 13.8332Z" fill="white"/>
<path fill-rule="evenodd" clip-rule="evenodd" d="M73.0723 13.7526C72.4028 14.434 71.583 14.7706 70.5854 14.7719C69.5877 14.7706 68.768 14.434 68.0999 13.7526L68.0962 13.749L68.0994 13.7526C67.4313 13.0689 67.1013 12.2444 67.1004 11.2532C67.1013 10.2619 67.4313 9.43744 68.0994 8.75375H68.0999C68.768 8.07238 69.5877 7.73535 70.5854 7.73395C71.5771 7.73535 72.3945 8.07377 73.0677 8.75873C73.7386 9.44555 74.0709 10.2688 74.0718 11.2532C74.0709 12.2444 73.7395 13.0689 73.0723 13.7526ZM68.5978 13.3322C69.1364 13.8745 69.8072 14.15 70.5854 14.1486C71.3635 14.15 72.0358 13.8745 72.573 13.3322C73.1143 12.7894 73.3868 12.0872 73.3858 11.2532C73.3868 10.4192 73.1143 9.71694 72.573 9.17417C72.0358 8.63185 71.3635 8.35641 70.5854 8.3578C69.8072 8.35641 69.1364 8.63185 68.5978 9.17417C68.0574 9.71694 67.7849 10.4192 67.7859 11.2532C67.7849 12.0872 68.0574 12.7894 68.5978 13.3322Z" fill="white"/>
<path d="M75.4523 14.7327H75.5691V14.6167V7.88996H76.4842L79.8912 13.3033H79.9943H80.1148L80.0724 11.8446V7.88996H80.7406V14.6167H79.9821L76.4176 8.94095H76.3135H76.1935L76.2354 10.3998V14.6167H75.5691H75.4523V14.7327V14.8486H76.3523H76.4691V10.3966L76.4303 9.0538L76.3135 9.05693V9.17291H76.3523V9.05693L76.2533 9.11863L79.8519 14.8486H80.8574H80.9742V7.65801H79.9555H79.8387V11.8477L79.8779 13.1905L79.9943 13.1874V13.0714H79.9555V13.1874L80.0551 13.1258L76.6134 7.65801H75.4523H75.3354V14.8486H75.4523V14.7327Z" fill="white"/>
<path d="M75.5691 14.6167V7.88996H76.4842L79.8912 13.3033H79.9943H80.1148L80.0724 11.8446V7.88996H80.7406V14.6167H79.9821L76.4176 8.94095H76.3135H76.1935L76.2354 10.3998V14.6167H75.5691Z" fill="white"/>
<path d="M82.463 14.7327H82.5799V14.6167V7.88996H83.2462V14.6167H82.5799H82.463V14.7327V14.8486H83.363H83.4799V7.65801H82.463H82.3462V14.8486H82.463V14.7327Z" fill="white"/>
<path d="M82.5799 14.6167V7.88996H83.2462V14.6167H82.5799Z" fill="white"/>
<path d="M85.8694 13.8778V13.9938H87.6807C88.0536 13.9951 88.3744 13.8592 88.6103 13.5946H88.61C88.8418 13.3395 88.9637 13.0451 88.9627 12.7302C88.9637 12.415 88.8368 12.1218 88.5981 11.869H88.5985C88.3558 11.6084 88.0258 11.4758 87.6411 11.4772H85.7525V13.9938H85.8694V13.8778H85.9862V11.7091H87.6411C87.9751 11.7104 88.227 11.8156 88.4269 12.0271H88.4274C88.6337 12.2482 88.7281 12.4761 88.729 12.7302C88.7281 12.9861 88.6355 13.2173 88.436 13.4401H88.4356C88.2403 13.6558 87.9998 13.7599 87.6807 13.7618H85.8694V13.8778ZM85.8694 10.7573V10.8733H87.5041C87.8692 10.8745 88.1819 10.7495 88.4087 10.4999V10.5004C88.6296 10.2611 88.7477 9.98475 88.7468 9.68854C88.7477 9.39407 88.6342 9.11863 88.4183 8.88215V8.88261C88.1992 8.63697 87.8961 8.51148 87.5442 8.51287H85.7525V10.8733H85.8694V10.7573H85.9862V8.74483H87.5442C87.8441 8.74669 88.0664 8.84179 88.2444 9.03709L88.2452 9.03791L88.2444 9.03756C88.4278 9.24052 88.5128 9.45253 88.5131 9.68854C88.5128 9.92363 88.4255 10.1366 88.2356 10.3436V10.344C88.0517 10.543 87.819 10.6399 87.5041 10.6413H85.8694V10.7573ZM84.9689 14.7327H85.0857V14.6167V7.88996H87.5041C88.0271 7.89088 88.4685 8.05847 88.8509 8.39921C89.2297 8.74077 89.4132 9.15354 89.4145 9.66906C89.4145 9.97941 89.3347 10.2454 89.175 10.4786H89.1746C89.0139 10.7143 88.8025 10.89 88.5328 11.0118L88.4643 11.0427V11.1559V11.2388L88.5437 11.2655C88.8687 11.3761 89.1316 11.5618 89.341 11.8296V11.8291C89.5464 12.0955 89.6491 12.3972 89.6501 12.7501C89.6482 13.292 89.4543 13.7255 89.0563 14.0826C88.6546 14.44 88.1906 14.6157 87.6411 14.6167H85.0857H84.9689V14.7327V14.8486H87.6411C88.2416 14.8496 88.7724 14.6493 89.2129 14.2547C89.6565 13.861 89.8852 13.3486 89.8838 12.7501C89.8842 12.352 89.7628 11.9922 89.5259 11.6878V11.6873C89.2904 11.3856 88.9852 11.169 88.6186 11.0463L88.5811 11.1559H88.698V11.1174H88.5811L88.6296 11.2229C88.9349 11.0857 89.1846 10.8795 89.3685 10.6086L89.368 10.6091C89.5551 10.3369 89.6487 10.0192 89.6482 9.66906C89.6501 9.09682 89.4319 8.60577 89.0075 8.22699C88.5866 7.8496 88.0787 7.65707 87.5041 7.658H84.8521V14.8486H84.9689V14.7327Z" fill="white"/>
<path fill-rule="evenodd" clip-rule="evenodd" d="M85.0857 14.6167V7.88996H87.5041C88.0271 7.89088 88.4685 8.05847 88.8509 8.39921C89.2297 8.74077 89.4132 9.15354 89.4145 9.66906C89.4145 9.97941 89.3347 10.2454 89.175 10.4786H89.1746C89.0139 10.7143 88.8025 10.89 88.5328 11.0118L88.4643 11.0427V11.1559V11.2388L88.5437 11.2655C88.8687 11.3761 89.1316 11.5618 89.341 11.8296V11.8291C89.5464 12.0955 89.6491 12.3972 89.6501 12.7501C89.6482 13.292 89.4543 13.7255 89.0563 14.0826C88.6546 14.44 88.1906 14.6157 87.6411 14.6167H85.0857ZM85.8694 13.9938H87.6807C88.0536 13.9951 88.3744 13.8592 88.6103 13.5946H88.61C88.8418 13.3395 88.9637 13.0451 88.9627 12.7302C88.9637 12.415 88.8368 12.1218 88.5981 11.869H88.5985C88.3558 11.6084 88.0258 11.4758 87.6411 11.4772H85.7525V13.9938H85.8694ZM85.8694 10.8733H87.5041C87.8692 10.8745 88.1819 10.7495 88.4087 10.4999V10.5004C88.6296 10.2611 88.7477 9.98475 88.7468 9.68854C88.7477 9.39407 88.6342 9.11863 88.4183 8.88215V8.88261C88.1992 8.63697 87.8961 8.51148 87.5442 8.51287H85.7525V10.8733H85.8694Z" fill="white"/>
<path d="M90.9811 14.7327H91.0979V14.6167V7.88996H91.7643V13.9938H94.7992V14.6167H91.0979H90.9811V14.7327V14.8486H95.0329V13.8778V13.7618H91.9979V7.65801H90.9811H90.8643V14.8486H90.9811V14.7327Z" fill="white"/>
<path d="M91.0979 14.6167V7.88996H91.7643V13.9938H94.7992V14.6167H91.0979Z" fill="white"/>
<path d="M100.144 8.62886V8.51288H100.027H96.8355V10.9512H99.714V11.5551L96.8355 11.5554V13.9938H100.027V14.6167H96.1687V7.88996H100.027V8.51288V8.62886H100.144H100.261V7.77398V7.65801H95.9351V14.8486H100.261V13.8778V13.7618H97.0692V11.7874H99.9477V10.8352V10.7192H97.0692V8.74483H100.261V8.62886H100.144Z" fill="white"/>
<path d="M100.027 8.51288H96.8355V10.9512H99.714V11.5551L96.8355 11.5554V13.9938H100.027V14.6167H96.1687V7.88996H100.027V8.51288Z" fill="white"/>
<path d="M105.589 14.8879V14.772C105.106 14.7715 104.633 14.6165 104.162 14.2971C103.725 13.9991 103.434 13.5962 103.281 13.0717C103.272 13.0398 103.263 13.0075 103.255 12.9748L103.142 13.0024L103.185 13.1102L103.281 13.0717L103.888 12.8281L104.008 12.7799L103.965 12.6721L103.851 12.7011C103.862 12.7441 103.874 12.7864 103.888 12.8281C104.001 13.1776 104.202 13.4798 104.489 13.7263L104.492 13.7286L104.489 13.7268C104.811 14.0045 105.182 14.1495 105.589 14.1486C106 14.149 106.363 14.0398 106.662 13.8201C106.967 13.5986 107.127 13.2755 107.125 12.8954C107.127 12.4805 106.971 12.1357 106.664 11.9046C106.367 11.68 105.918 11.482 105.311 11.2976H105.312C104.702 11.1077 104.249 10.8627 103.947 10.5718C103.65 10.285 103.504 9.92849 103.502 9.47455C103.504 9.00704 103.684 8.61017 104.063 8.25725C104.439 7.91024 104.923 7.73488 105.54 7.73395C106.116 7.73442 106.568 7.87626 106.916 8.15124C107.238 8.40672 107.452 8.67712 107.566 8.96276C107.579 8.99572 107.591 9.02888 107.602 9.06225L107.714 9.0278L107.668 8.92052L107.566 8.96276L106.962 9.21248L106.847 9.26022L106.891 9.36715L107.005 9.33723C106.993 9.29495 106.979 9.25337 106.962 9.21248C106.88 9.0129 106.733 8.83007 106.53 8.66537C106.274 8.45835 105.945 8.35734 105.559 8.3578C105.193 8.35734 104.867 8.46067 104.601 8.66955V8.66908C104.334 8.8761 104.188 9.15561 104.19 9.47455C104.188 9.76809 104.324 10.0278 104.571 10.2212V10.2216C104.814 10.4123 105.156 10.5768 105.602 10.7218L105.603 10.7222C105.945 10.8314 106.23 10.9369 106.457 11.0384C106.68 11.1377 106.909 11.2717 107.14 11.4393C107.363 11.6002 107.529 11.7977 107.641 12.0365C107.755 12.2744 107.812 12.5529 107.812 12.8759C107.812 13.1977 107.747 13.4785 107.616 13.7263C107.483 13.9768 107.31 14.1712 107.095 14.3157C106.873 14.4647 106.634 14.578 106.377 14.6555C106.12 14.7334 105.859 14.772 105.589 14.772V14.8879V15.0039C105.881 15.0039 106.167 14.9618 106.445 14.8775C106.724 14.7932 106.985 14.6695 107.226 14.5082V14.5078C107.473 14.3416 107.674 14.1155 107.823 13.8337C107.972 13.5501 108.046 13.2289 108.046 12.8759C108.046 12.5258 107.983 12.2119 107.853 11.9377C107.724 11.6646 107.532 11.4335 107.278 11.2513L107.276 11.2501L107.278 11.2518C107.035 11.0761 106.793 10.9338 106.553 10.8269C106.314 10.7199 106.022 10.6126 105.674 10.5012C105.245 10.362 104.926 10.2049 104.717 10.0399C104.515 9.87688 104.425 9.69931 104.424 9.47455C104.425 9.22357 104.524 9.02745 104.746 8.85163V8.85117C104.969 8.6772 105.235 8.59022 105.559 8.58976C105.906 8.59022 106.174 8.6772 106.382 8.84525V8.84479C106.6 9.02247 106.728 9.20676 106.779 9.39754L106.813 9.52535L107.758 9.13474L107.856 9.09403L107.825 8.99301C107.706 8.61562 107.446 8.27488 107.062 7.96951C106.666 7.65556 106.153 7.50154 105.54 7.502C104.878 7.50107 104.324 7.69638 103.904 8.0878C103.486 8.47331 103.268 8.94407 103.269 9.47455C103.268 9.97975 103.442 10.4105 103.785 10.7385C104.122 11.0638 104.61 11.3216 105.242 11.5191C105.835 11.6985 106.264 11.8925 106.522 12.0886C106.77 12.2794 106.889 12.5335 106.891 12.8954C106.889 13.2153 106.773 13.4473 106.523 13.6334C106.267 13.8215 105.96 13.9162 105.589 13.9166C105.238 13.9157 104.93 13.7979 104.642 13.5514C104.356 13.3032 104.17 13.0047 104.077 12.6435L104.044 12.5149L103.098 12.895L103.003 12.9325L103.028 13.0304C103.183 13.6507 103.52 14.1431 104.03 14.4884C104.531 14.8295 105.055 15.0039 105.589 15.0039V14.8879Z" fill="white"/>
<path d="M105.589 14.772C105.106 14.7715 104.633 14.6165 104.162 14.2971C103.725 13.9991 103.434 13.5962 103.281 13.0717L103.888 12.8281C104.001 13.1776 104.202 13.4798 104.489 13.7263L104.492 13.7286L104.489 13.7268C104.811 14.0045 105.182 14.1495 105.589 14.1486C106 14.149 106.363 14.0398 106.662 13.8201C106.967 13.5986 107.127 13.2755 107.125 12.8954C107.127 12.4805 106.971 12.1357 106.664 11.9046C106.367 11.68 105.918 11.482 105.311 11.2976H105.312C104.702 11.1077 104.249 10.8627 103.947 10.5718C103.65 10.285 103.504 9.92849 103.502 9.47455C103.504 9.00704 103.684 8.61017 104.063 8.25725C104.439 7.91024 104.923 7.73488 105.54 7.73395C106.116 7.73442 106.568 7.87626 106.916 8.15124C107.238 8.40672 107.452 8.67712 107.566 8.96276L106.962 9.21248C106.88 9.0129 106.733 8.83007 106.53 8.66537C106.274 8.45835 105.945 8.35734 105.559 8.3578C105.193 8.35734 104.867 8.46067 104.601 8.66955V8.66908C104.334 8.8761 104.188 9.15561 104.19 9.47455C104.188 9.76809 104.324 10.0278 104.571 10.2212V10.2216C104.814 10.4123 105.156 10.5768 105.602 10.7218L105.603 10.7222C105.945 10.8314 106.23 10.9369 106.457 11.0384C106.68 11.1377 106.909 11.2717 107.14 11.4393C107.363 11.6002 107.529 11.7977 107.641 12.0365C107.755 12.2744 107.812 12.5529 107.812 12.8759C107.812 13.1977 107.747 13.4785 107.616 13.7263C107.483 13.9768 107.31 14.1712 107.095 14.3157C106.873 14.4647 106.634 14.578 106.377 14.6555C106.12 14.7334 105.859 14.772 105.589 14.772Z" fill="white"/>
<path d="M111.66 14.8879V14.7719C110.913 14.7701 110.328 14.5319 109.868 14.0502C109.412 13.5682 109.183 12.9417 109.181 12.1475V7.88982H109.847V12.1865C109.847 12.7564 109.999 13.2329 110.311 13.5981C110.624 13.9673 111.087 14.15 111.66 14.1486C112.23 14.15 112.692 13.9673 113.006 13.5977C113.317 13.2329 113.469 12.7564 113.469 12.1865V7.88982H114.136V12.1475C114.136 12.9489 113.911 13.5777 113.467 14.0557C113.023 14.5327 112.431 14.7706 111.66 14.7719V14.8879V15.0039C112.479 15.0048 113.149 14.7416 113.639 14.2129C114.128 13.6878 114.371 12.991 114.37 12.1475V7.65787H113.353H113.236V12.1865C113.234 12.7174 113.097 13.131 112.827 13.4482C112.562 13.7581 112.184 13.9152 111.66 13.9166C111.133 13.9152 110.755 13.7581 110.49 13.4482C110.22 13.131 110.082 12.7174 110.081 12.1865V7.65787H109.065H108.948V12.1475C108.947 12.9852 109.197 13.6814 109.698 14.2092C110.199 14.7384 110.863 15.0048 111.66 15.0039V14.8879Z" fill="white"/>
<path d="M111.66 14.7719C110.913 14.7701 110.328 14.5319 109.868 14.0502C109.412 13.5682 109.183 12.9417 109.181 12.1475V7.88982H109.847V12.1865C109.847 12.7564 109.999 13.2329 110.311 13.5981C110.624 13.9673 111.087 14.15 111.66 14.1486C112.23 14.15 112.692 13.9673 113.006 13.5977C113.317 13.2329 113.469 12.7564 113.469 12.1865V7.88982H114.136V12.1475C114.136 12.9489 113.911 13.5777 113.467 14.0557C113.023 14.5327 112.431 14.7706 111.66 14.7719Z" fill="white"/>
<path d="M116.603 11.0784V11.1944H118.052C118.437 11.1953 118.779 11.0662 119.057 10.8143H119.056C119.337 10.5624 119.482 10.2281 119.481 9.84442C119.482 9.51052 119.353 9.20016 119.109 8.93109C118.859 8.6524 118.516 8.51149 118.111 8.51288H116.603H116.486V11.1944H116.603V11.0784H116.72V8.74483H118.111C118.464 8.74669 118.727 8.85815 118.935 9.08593C119.147 9.32206 119.247 9.56897 119.247 9.84442C119.246 10.1729 119.134 10.4288 118.899 10.6426C118.661 10.8569 118.386 10.9615 118.052 10.9624H116.603V11.0784ZM115.702 14.7327H115.819V14.6167V7.88996H118.092C118.659 7.89089 119.141 8.07436 119.554 8.4477C119.967 8.82045 120.167 9.27578 120.168 9.84442C120.168 10.3051 120.019 10.7029 119.716 11.0567V11.0572C119.411 11.4114 119.039 11.6298 118.587 11.7231L118.539 11.7327L118.494 11.8011L118.449 11.8667L120.363 14.6167L120.442 14.7303V14.7327H120.559V14.6167H120.363H119.554L117.665 11.7983H116.603H116.486V14.6167H115.819H115.702V14.7327V14.8486H116.603H116.72V12.0303H117.54L119.429 14.8486H120.559H120.676V14.6942V14.6579L118.686 11.7997L118.59 11.8653L118.687 11.9297L118.707 11.9007L118.61 11.8363L118.634 11.9501C119.134 11.8486 119.559 11.5981 119.893 11.2072V11.2075C120.231 10.8161 120.403 10.3554 120.401 9.84442C120.404 9.22011 120.17 8.68684 119.712 8.27594C119.259 7.86549 118.711 7.65708 118.092 7.65801H115.585V14.8486H115.702V14.7327Z" fill="white"/>
<path fill-rule="evenodd" clip-rule="evenodd" d="M115.819 14.6167V7.88996H118.092C118.659 7.89089 119.141 8.07436 119.554 8.4477C119.967 8.82045 120.167 9.27578 120.168 9.84442C120.168 10.3051 120.019 10.7029 119.716 11.0567V11.0572C119.411 11.4114 119.039 11.6298 118.587 11.7231L118.539 11.7327L118.494 11.8011L118.449 11.8667L120.363 14.6167H119.554L117.665 11.7983H116.603H116.486V14.6167H115.819ZM116.603 11.1944H118.052C118.437 11.1953 118.779 11.0662 119.057 10.8143H119.056C119.337 10.5624 119.482 10.2281 119.481 9.84442C119.482 9.51052 119.353 9.20016 119.109 8.93109C118.859 8.6524 118.516 8.51149 118.111 8.51288H116.603H116.486V11.1944H116.603Z" fill="white"/>
<defs>
<linearGradient id="paint0_linear_598_24146" x1="24.7064" y1="34.6231" x2="6.14159" y2="15.6085" gradientUnits="userSpaceOnUse">
<stop stop-color="#00A0FF"/>
<stop offset="0.0066" stop-color="#00A1FF"/>
<stop offset="0.2601" stop-color="#00BEFF"/>
<stop offset="0.5122" stop-color="#00D2FF"/>
<stop offset="0.7604" stop-color="#00DFFF"/>
<stop offset="1" stop-color="#00E3FF"/>
</linearGradient>
<linearGradient id="paint1_linear_598_24146" x1="38.3454" y1="22.1286" x2="10.9223" y2="22.1286" gradientUnits="userSpaceOnUse">
<stop stop-color="#FFE000"/>
<stop offset="0.4087" stop-color="#FFBD00"/>
<stop offset="0.7754" stop-color="#FFA500"/>
<stop offset="1" stop-color="#FF9C00"/>
</linearGradient>
<linearGradient id="paint2_linear_598_24146" x1="28.1371" y1="19.5894" x2="2.96179" y2="-6.19594" gradientUnits="userSpaceOnUse">
<stop stop-color="#FF3A44"/>
<stop offset="1" stop-color="#C31162"/>
</linearGradient>
<linearGradient id="paint3_linear_598_24146" x1="8.27011" y1="44.0658" x2="19.512" y2="32.5516" gradientUnits="userSpaceOnUse">
<stop stop-color="#32A071"/>
<stop offset="0.0685" stop-color="#2DA771"/>
<stop offset="0.4762" stop-color="#15CF74"/>
<stop offset="0.8009" stop-color="#06E775"/>
<stop offset="1" stop-color="#00F076"/>
</linearGradient>
</defs>
</svg>
