<svg width="24" height="24" viewBox="0 0 24 24" fill="none" xmlns="http://www.w3.org/2000/svg">
<g id="simple-loader">
<path id="track" d="M22.001 12.001C22.001 17.5238 17.5238 22.001 12.001 22.001C6.47813 22.001 2.00098 17.5238 2.00098 12.001C2.00098 6.47813 6.47813 2.00098 12.001 2.00098C17.5238 2.00098 22.001 6.47813 22.001 12.001ZM5.50098 12.001C5.50098 15.5908 8.41113 18.501 12.001 18.501C15.5908 18.501 18.501 15.5908 18.501 12.001C18.501 8.41113 15.5908 5.50098 12.001 5.50098C8.41113 5.50098 5.50098 8.41113 5.50098 12.001Z" fill="#003840"/>
<path id="indicator" d="M12.001 1.99902C13.3142 1.99902 14.6146 2.25768 15.8278 2.76023C17.0411 3.26278 18.1435 3.99937 19.072 4.92796C20.0006 5.85654 20.7372 6.95893 21.2398 8.17219C21.7423 9.38545 22.001 10.6858 22.001 11.999L18.501 11.999C18.501 11.1454 18.3328 10.3002 18.0062 9.51158C17.6795 8.72297 17.2007 8.00641 16.5972 7.40283C15.9936 6.79925 15.277 6.32046 14.4884 5.99381C13.6998 5.66715 12.8546 5.49902 12.001 5.49902L12.001 1.99902Z" fill="#FCF8C5"/>
</g>
</svg>
