<svg width="32" height="32" viewBox="0 0 32 32" fill="none" xmlns="http://www.w3.org/2000/svg">
<g id="size=32">
<path id="Vector" d="M24.7444 25.1431C24.7327 26.7323 23.4354 28.0115 21.8462 28.0011C20.2622 27.9959 18.9818 26.7076 18.9868 25.1223V25.1041C18.9986 23.5136 20.2959 22.2345 21.8851 22.2448C23.4743 22.2552 24.7548 23.5525 24.7444 25.1431Z" stroke="#435B67" stroke-width="1.5" stroke-linecap="round" stroke-linejoin="round"/>
<path id="Vector_2" d="M15.7704 16.0195C15.7588 17.6099 14.4615 18.8891 12.8723 18.8787C11.2882 18.8735 10.0078 17.584 10.013 16V15.9806C10.0246 14.3912 11.322 13.1108 12.9112 13.1225C14.5004 13.1329 15.7808 14.4302 15.7704 16.0195Z" stroke="#435B67" stroke-width="1.5" stroke-linecap="round" stroke-linejoin="round"/>
<path id="Vector_3" d="M24.2026 6.89829C24.191 8.4875 22.8936 9.76668 21.3044 9.75629C19.7203 9.7511 18.4399 8.46286 18.4451 6.87753V6.85937C18.4568 5.26885 19.754 3.98968 21.3434 4.00006C22.9326 4.01044 24.213 5.30777 24.2026 6.89829Z" stroke="#435B67" stroke-width="1.5" stroke-linecap="round" stroke-linejoin="round"/>
<path id="Vector_4" d="M6.19775 25.1224H18.9868M24.748 25.1224H28.4142" stroke="#435B67" stroke-width="1.5" stroke-linecap="round" stroke-linejoin="round"/>
<path id="Vector_5" d="M6.19775 16.0026H10.0106M15.7706 16.0026H28.4144" stroke="#435B67" stroke-width="1.5" stroke-linecap="round" stroke-linejoin="round"/>
<path id="Vector_6" d="M6.19775 6.87756H18.4393M24.1981 6.87756H28.4132" stroke="#435B67" stroke-width="1.5" stroke-linecap="round" stroke-linejoin="round"/>
</g>
</svg>
